<svg width="20" height="20" viewBox="0 0 20 20" fill="none" xmlns="http://www.w3.org/2000/svg">
<circle cx="10" cy="10" r="10" fill="#4BC7B6"/>
<path fill-rule="evenodd" clip-rule="evenodd" d="M10.5 5L5.91666 7.75V10.5C5.97652 12.7297 6.7391 14.77 10.5 16C14.2609 14.77 15.0235 12.7297 15.0833 10.5V7.75L10.5 5ZM10.0416 8.20811C10.0416 8.08661 10.0898 7.97007 10.1757 7.88416C10.2616 7.79824 10.3782 7.74998 10.4997 7.75H10.5001C10.6216 7.74998 10.7382 7.79824 10.8241 7.88416C10.91 7.97007 10.9583 8.08661 10.9583 8.20811V10.9586C10.9583 11.0801 10.91 11.1966 10.8241 11.2825C10.7382 11.3684 10.6216 11.4167 10.5001 11.4167H10.4997C10.3782 11.4167 10.2616 11.3684 10.1757 11.2825C10.0898 11.1966 10.0416 11.0801 10.0416 10.9586V8.20811ZM9.81241 13.021C9.81241 13.4007 10.1202 13.7085 10.4999 13.7085C10.8796 13.7084 11.1874 13.4007 11.1874 13.021C11.1874 12.6413 10.8796 12.3335 10.4999 12.3335C10.1202 12.3335 9.81241 12.6413 9.81241 13.021Z" fill="white"/>
</svg>
