<svg width="20" height="20" viewBox="0 0 20 20" fill="none" xmlns="http://www.w3.org/2000/svg">
<circle cx="10" cy="10" r="10" fill="#4BC7B6"/>
<path d="M14.1667 6H5.83333C5.37311 6.00002 5.00002 6.37311 5 6.83333V13.0833C5.00002 13.5436 5.37311 13.9166 5.83333 13.9167H8.33333L10 16L11.6667 13.9167H14.1667C14.6269 13.9166 15 13.5436 15 13.0833V6.83333C15 6.37311 14.6269 6.00002 14.1667 6Z" fill="white"/>
<path d="M8.90853 9.51234C9.13611 9.51234 9.31701 9.33145 9.31701 9.10387C9.31701 8.88211 9.40452 8.67788 9.56791 8.52614C9.73131 8.37442 9.94139 8.30438 10.169 8.32187C10.5774 8.35106 10.8984 8.71285 10.8926 9.12719C10.8868 9.51234 10.6241 9.82744 10.2624 9.88582C9.95889 9.93833 9.75467 10.1893 9.75467 10.5102V11.0938C9.75467 11.3214 9.93556 11.5023 10.1631 11.5023C10.3907 11.5023 10.5716 11.3214 10.5716 11.0938V10.6503C11.2252 10.4577 11.692 9.84499 11.7096 9.1389C11.7271 8.28689 11.0793 7.56914 10.2332 7.50495C9.78967 7.46994 9.34615 7.62165 9.01354 7.92511C8.68676 8.22857 8.5 8.65455 8.5 9.10389C8.5 9.32565 8.68089 9.51236 8.90848 9.51236L8.90853 9.51234Z" fill="#4BC7B6"/>
<path d="M10.5833 12.0803C10.5833 12.3124 10.3952 12.5005 10.1631 12.5005C9.93111 12.5005 9.74298 12.3124 9.74298 12.0803C9.74298 11.8483 9.93112 11.6602 10.1631 11.6602C10.3952 11.6602 10.5833 11.8483 10.5833 12.0803Z" fill="#4BC7B6"/>
</svg>
