<svg width="20" height="20" viewBox="0 0 20 20" fill="none" xmlns="http://www.w3.org/2000/svg">
<circle cx="10" cy="10" r="10" fill="#4BC7B6"/>
<path d="M8.928 9.788V12.392C8.928 12.992 8.976 13.856 9.012 14H7.368C7.32 13.88 7.284 13.544 7.284 13.388C7.056 13.736 6.636 14.144 5.532 14.144C4.032 14.144 3.408 13.16 3.408 12.2C3.408 10.784 4.536 10.124 6.36 10.124H7.248V9.752C7.248 9.308 7.092 8.876 6.288 8.876C5.568 8.876 5.4 9.176 5.328 9.632H3.696C3.78 8.528 4.464 7.64 6.36 7.64C8.016 7.652 8.928 8.3 8.928 9.788ZM7.248 11.336V11.168H6.552C5.508 11.168 5.124 11.492 5.124 12.092C5.124 12.536 5.4 12.92 6.024 12.92C7.116 12.92 7.248 12.152 7.248 11.336ZM10.0045 11.972V5.24H11.7325V8.444C11.9845 8.048 12.5005 7.64 13.5085 7.64C15.2005 7.64 16.0405 9.044 16.0405 10.784C16.0405 12.56 15.1285 14.144 13.3405 14.144C12.4165 14.144 12.0085 13.868 11.7085 13.412C11.7085 13.616 11.6725 13.844 11.6365 14H9.99246C10.0045 13.328 10.0045 12.644 10.0045 11.972ZM14.3005 10.82C14.3005 9.776 13.9045 9.02 12.9805 9.02C11.9965 9.02 11.6485 9.656 11.6485 10.928C11.6485 11.972 11.9605 12.776 12.9565 12.776C13.8325 12.776 14.3005 11.996 14.3005 10.82Z" fill="white"/>
</svg>
