<svg width="20" height="20" viewBox="0 0 20 20" fill="none" xmlns="http://www.w3.org/2000/svg">
<circle cx="10" cy="10" r="10" fill="#4BC7B6"/>
<path fill-rule="evenodd" clip-rule="evenodd" d="M6.49998 5C5.67156 5 5 5.67156 5 6.49998V14.5C5 15.3284 5.67156 16 6.49998 16H10.0001C10.8285 16 11.5 15.3284 11.5 14.5V11.5001C11.5 11.2239 11.2761 11 11 11H7.50012C7.22397 11 7.00016 10.7762 7.00016 10.5C7.00016 10.2239 7.22397 10.0001 7.50012 10.0001H11C11.2761 10.0001 11.5 9.77617 11.5 9.50003V6.50007C11.5 5.67165 10.8285 5.00009 10.0001 5.00009L6.49998 5ZM12.6465 7.64639C12.8417 7.45111 13.1583 7.45111 13.3535 7.64639L15.8535 10.1462C16.0488 10.3415 16.0488 10.6581 15.8535 10.8534L13.3535 13.3532C13.1583 13.5485 12.8417 13.5485 12.6465 13.3532C12.4512 13.158 12.4512 12.8414 12.6465 12.6461L14.2928 10.9997H13C12.7239 10.9997 12.5 10.7758 12.5 10.4997C12.5 10.2236 12.7239 9.99974 13 9.99974H14.2928L12.6465 8.35327C12.4512 8.15799 12.4512 7.84141 12.6465 7.64622V7.64639Z" fill="white"/>
</svg>
